<svg width="175" height="390" viewBox="0 0 175 390" fill="none" xmlns="http://www.w3.org/2000/svg">
<path d="M15.8267 0.0720246L50.64 83.9533H6.332L20.9853 120.873H110.777L15.8267 0.0720246" fill="#E9D110"/>
<path d="M133.889 305.47L119.068 268.552H98.5133L55.7853 164.696H37.372L80.076 268.552H27.8693L124.395 389.365L89.5867 305.47H133.889Z" fill="#E9D110"/>
<path d="M145.844 157.812C146.932 157.812 149.467 156.42 149.467 143.592C149.467 130.779 146.932 129.393 145.844 129.393H83.9933L95.732 157.812H145.844Z" fill="#100F0D"/>
<path d="M109.809 191.892L151.364 191.885C152.465 191.885 154.995 190.493 154.995 177.673C154.995 164.851 152.465 163.465 151.364 163.465L98.0707 163.472L109.809 191.892" fill="#100F0D"/>
<path d="M145.844 231.632H89.96L101.696 260.045H145.844C146.932 260.045 149.467 258.667 149.467 245.845C149.467 233.024 146.932 231.632 145.844 231.632Z" fill="#100F0D"/>
<path d="M151.364 197.552H75.8827L87.6213 225.972H151.364C152.465 225.972 154.995 224.579 154.995 211.765C154.995 198.945 152.465 197.552 151.364 197.552" fill="#100F0D"/>
<path d="M145.844 231.632H89.96L101.696 260.045H145.844C146.932 260.045 149.467 258.667 149.467 245.845C149.467 233.024 146.932 231.632 145.844 231.632Z" fill="#100F0D"/>
<path d="M151.364 197.552H75.8827L87.6213 225.972H151.364C152.465 225.972 154.995 224.579 154.995 211.765C154.995 198.945 152.465 197.552 151.364 197.552" fill="#100F0D"/>
<path d="M41.704 192.105L28.4507 157.792H59.46L73.8 192.148L103.429 191.892L77.6133 129.393H13.1547C8.18934 129.393 5.46133 129.393 3.22666 136.789C0.542664 145.616 0.233337 162.28 0.233337 194.712C0.233337 227.145 0.542664 243.809 3.22666 252.636C5.46133 260.032 8.18934 260.032 13.1547 260.032L69.7053 260.041L41.688 191.872L41.704 192.105" fill="#100F0D"/>
<path d="M168.724 259.381L166.628 253.029V259.381H164.965V251.085H167.492L169.545 257.48L171.597 251.085H174.037V259.381H172.309V253.029L170.279 259.381H168.724ZM159.737 252.575H157.403V251.085H163.971V252.575H161.637V259.381H159.737V252.575Z" fill="#231F20"/>
</svg>
